Coordinates
version=1
nRows=15
nColumns=63
inDegrees=yes

Units are S.I. units (second, meters, Newtons, ...)
If the header above contains a line with 'inDegrees', this indicates whether rotational values are in degrees (yes) or radians (no).

endheader
time	pelvis_tilt	pelvis_list	pelvis_rotation	pelvis_tx	pelvis_ty	pelvis_tz	hip_flexion_r	hip_adduction_r	hip_rotation_r	knee_angle_r	knee_angle_r_beta	ankle_angle_r	subtalar_angle_r	mtp_angle_r	hip_flexion_l	hip_adduction_l	hip_rotation_l	knee_angle_l	knee_angle_l_beta	ankle_angle_l	subtalar_angle_l	mtp_angle_l	L5_S1_Flex_Ext	L5_S1_Lat_Bending	L5_S1_axial_rotation	L4_L5_Flex_Ext	L4_L5_Lat_Bending	L4_L5_axial_rotation	L3_L4_Flex_Ext	L3_L4_Lat_Bending	L3_L4_axial_rotation	L2_L3_Flex_Ext	L2_L3_Lat_Bending	L2_L3_axial_rotation	L1_L2_Flex_Ext	L1_L2_Lat_Bending	L1_L2_axial_rotation	L1_T12_Flex_Ext	L1_T12_Lat_Bending	L1_T12_axial_rotation	Abs_r3	Abs_r2	Abs_r1	Abs_t1	Abs_t2	neck_flexion	neck_bending	neck_rotation	arm_flex_r	arm_add_r	arm_rot_r	elbow_flex_r	pro_sup_r	wrist_flex_r	wrist_dev_r	arm_flex_l	arm_add_l	arm_rot_l	elbow_flex_l	pro_sup_l	wrist_flex_l	wrist_dev_l
3.783333	9.479758	-6.471316	80.622084	0.235488	0.909111	0.594863	6.954714	5.354783	-7.698848	18.678082	0.325994	48.332492	18.184831	0.000000	5.112546	-5.417358	-5.334511	17.666431	0.308337	46.857345	-4.053418	0.000000	0.136668	1.097703	0.234023	0.253807	1.459945	0.248650	0.224532	2.668955	0.248650	0.156198	2.668955	0.204770	0.126910	2.238436	0.190144	0.078092	1.700342	0.175517	0.976208	12.417437	1.301567	0.000000	0.000000	15.359269	-9.084040	17.280488	9.953900	-14.138794	147.914032	4.387243	-2.724094	-3.833074	-14.285792	-17.353809	-20.196935	24.092985	114.816700	87.398471	19.559253	28.580920
3.800000	9.457562	-6.487201	80.914335	0.235493	0.909156	0.594574	7.005268	5.317397	-7.907701	18.748806	0.327228	48.363886	18.101462	0.000000	5.207879	-5.434959	-5.324979	17.743305	0.309679	46.914372	-3.689891	0.000000	0.132310	1.098535	0.280272	0.245712	1.461051	0.297789	0.217371	2.670978	0.297789	0.151217	2.670978	0.245238	0.122863	2.240132	0.227721	0.075602	1.701631	0.210204	0.945074	12.426846	1.558788	0.000000	0.000000	15.779717	-9.106952	18.186960	9.937945	-14.376891	143.656604	5.235435	-0.731010	-3.207020	-13.424464	-16.934777	-20.501798	26.021104	114.987448	86.986414	16.983312	27.807748
3.816667	9.440419	-6.503648	81.201395	0.235296	0.909203	0.594160	7.048916	5.268748	-8.127085	18.824186	0.328544	48.381588	18.016051	0.000000	5.299897	-5.422112	-5.176864	17.798659	0.310645	46.956985	-3.492859	0.000000	0.129553	1.104748	0.305205	0.240593	1.469315	0.324281	0.212842	2.686085	0.324281	0.148066	2.686085	0.267055	0.120303	2.252803	0.247979	0.074027	1.711255	0.228904	0.925383	12.497134	1.697461	0.000000	0.000000	16.259774	-9.169077	19.287013	9.786686	-14.744992	137.985998	6.340815	2.740929	-2.783894	-12.295043	-16.762150	-20.679202	27.528888	115.233299	86.506371	14.033914	27.130552
3.833333	9.424774	-6.503553	81.490231	0.234926	0.909275	0.593663	7.069205	5.205099	-8.365041	18.898089	0.329834	48.392552	17.937440	0.000000	5.376878	-5.383993	-4.947644	17.837920	0.311330	46.997581	-3.381423	0.000000	0.127208	1.114459	0.313575	0.236237	1.482230	0.333174	0.208989	2.709695	0.333174	0.145386	2.709695	0.274378	0.118125	2.272604	0.254780	0.072686	1.726297	0.235181	0.908631	12.606981	1.744011	0.000000	0.000000	16.776851	-9.251149	20.505232	9.504740	-15.209999	131.287164	7.619936	7.481152	-2.589340	-10.955936	-16.758874	-20.765712	28.638109	115.488154	86.029977	11.211692	26.577631
3.850000	9.407660	-6.478722	81.758209	0.234440	0.909395	0.593127	7.062203	5.127700	-8.597446	18.968567	0.331064	48.398621	17.869867	0.000000	5.423417	-5.321080	-4.665444	17.854514	0.311620	47.026514	-3.349855	0.000000	0.125878	1.125877	0.323356	0.233767	1.497417	0.343566	0.206804	2.737458	0.343566	0.143865	2.737458	0.282936	0.116890	2.295889	0.262727	0.071926	1.743984	0.242517	0.899131	12.736151	1.798409	0.000000	0.000000	17.295929	-9.378507	21.657828	9.068633	-15.747722	123.759017	8.996661	13.242029	-2.593729	-9.503564	-16.765563	-20.808149	29.458782	115.662501	85.489058	8.953670	26.197186
3.866667	9.398961	-6.416462	82.011435	0.233864	0.909572	0.592609	7.016742	5.049827	-8.823940	19.030372	0.332143	48.408329	17.817311	0.000000	5.435712	-5.251961	-4.367749	17.873181	0.311946	47.050869	-3.358079	0.000000	0.123021	1.139240	0.343897	0.228462	1.515189	0.365390	0.202111	2.769948	0.365390	0.140600	2.769948	0.300909	0.114237	2.323138	0.279416	0.070294	1.764683	0.257922	0.878724	12.887309	1.912649	0.000000	0.000000	17.811453	-9.531481	22.705186	8.412074	-16.340995	115.141552	10.471764	20.390709	-2.715406	-7.862297	-16.621492	-20.845474	30.125021	115.712243	84.956099	7.499288	26.026402
3.883333	9.396618	-6.315953	82.249685	0.233265	0.909814	0.592125	6.936410	4.976278	-9.034649	19.085461	0.333104	48.430518	17.773994	0.000000	5.408203	-5.172821	-4.009101	17.894362	0.312316	47.049101	-3.476634	0.000000	0.118572	1.152732	0.380200	0.220200	1.533134	0.403962	0.194802	2.802754	0.403962	0.135516	2.802754	0.332675	0.110106	2.350652	0.308912	0.067752	1.785583	0.285150	0.846949	13.039940	2.114556	0.000000	0.000000	18.320739	-9.690336	23.592837	7.678189	-16.974089	106.603771	11.911732	27.643983	-2.961620	-6.210163	-16.228343	-20.917558	30.775454	115.623142	84.299795	6.718276	26.095625
3.900000	9.403738	-6.207435	82.461606	0.232684	0.910090	0.591683	6.850221	4.918722	-9.216004	19.125184	0.333797	48.456282	17.748291	0.000000	5.355187	-5.092861	-3.616803	17.898417	0.312386	47.000545	-3.719242	0.000000	0.114889	1.165987	0.431295	0.213360	1.550762	0.458250	0.188750	2.834980	0.458250	0.131306	2.834980	0.377383	0.106686	2.377680	0.350427	0.065647	1.806113	0.323471	0.820638	13.189874	2.398731	0.000000	0.000000	18.876722	-9.810990	24.293484	6.927733	-17.622230	98.432647	13.302934	34.893463	-3.350771	-4.635002	-15.602334	-20.958499	31.375755	115.411396	83.574045	6.631904	26.428763
3.916667	9.435621	-6.080344	82.661686	0.232127	0.910391	0.591305	6.746021	4.891858	-9.379621	19.148675	0.334207	48.492033	17.737228	0.000000	5.283611	-5.039630	-3.238361	17.933365	0.312996	46.949349	-4.006623	0.000000	0.108297	1.178954	0.501683	0.201118	1.568009	0.533038	0.177921	2.866509	0.533038	0.123772	2.866509	0.438973	0.100564	2.404123	0.407618	0.061881	1.826200	0.376262	0.773553	13.336564	2.790211	0.000000	0.000000	19.524478	-9.909582	24.650719	6.170626	-18.290815	90.396652	14.725754	41.808351	-3.829663	-3.121674	-14.733453	-20.972017	31.991771	115.100773	82.789522	6.985735	26.954505
3.933333	9.491547	-5.961293	82.830345	0.231667	0.910694	0.590972	6.650505	4.902646	-9.508585	19.158942	0.334387	48.533873	17.740782	0.000000	5.203885	-5.022920	-2.919777	17.980974	0.313827	46.899372	-4.309995	0.000000	0.102055	1.192231	0.584223	0.189526	1.585668	0.620736	0.167666	2.898791	0.620736	0.116639	2.898791	0.511195	0.094768	2.431198	0.474681	0.058314	1.846766	0.438167	0.728969	13.486760	3.249270	0.000000	0.000000	20.228617	-9.968026	24.793579	5.482792	-18.973917	82.618984	16.225177	48.303916	-4.390417	-1.688956	-13.703774	-20.963398	32.623969	114.738608	81.975478	7.497347	27.597916
3.950000	9.574854	-5.858744	82.972520	0.231299	0.910970	0.590673	6.566996	4.955312	-9.602624	19.153244	0.334287	48.577816	17.751060	0.000000	5.123923	-5.039680	-2.609941	18.037911	0.314821	46.840978	-4.683577	0.000000	0.095237	1.206164	0.669478	0.176865	1.604198	0.711320	0.156465	2.932667	0.711320	0.108847	2.932667	0.585793	0.088437	2.459609	0.543951	0.054419	1.868348	0.502108	0.680270	13.644367	3.723436	0.000000	0.000000	21.032472	-9.945231	24.738970	4.886497	-19.650423	75.356470	17.734136	54.155264	-5.010024	-0.361444	-12.634092	-20.939019	33.247761	114.368004	81.095857	7.910694	28.166673
3.966667	9.677281	-5.768471	83.107028	0.231003	0.911213	0.590395	6.487744	5.036673	-9.689706	19.131941	0.333915	48.621500	17.775322	0.000000	5.037718	-5.075132	-2.253747	18.085411	0.315650	46.771467	-5.135491	0.000000	0.087935	1.219592	0.751917	0.163304	1.622058	0.798912	0.144469	2.965317	0.798912	0.100501	2.965317	0.657927	0.081657	2.486993	0.610932	0.050246	1.889149	0.563938	0.628112	13.796273	4.181936	0.000000	0.000000	21.898687	-9.860774	24.466430	4.391674	-20.292312	68.846098	19.178583	59.067671	-5.648169	0.796538	-11.574021	-20.927773	33.893377	114.012082	80.162852	8.089431	28.602788
3.983333	9.786350	-5.688179	83.231468	0.230817	0.911429	0.590144	6.409089	5.136199	-9.760185	19.096296	0.333293	48.660808	17.799647	0.000000	4.950103	-5.138097	-1.981540	18.129780	0.316424	46.725419	-5.478788	0.000000	0.080191	1.231401	0.829897	0.148923	1.637764	0.881765	0.131746	2.994029	0.881765	0.091651	2.994029	0.726160	0.074466	2.511074	0.674291	0.045821	1.907441	0.622422	0.572798	13.929859	4.615636	0.000000	0.000000	22.780488	-9.730127	24.034736	3.990660	-20.853319	63.252503	20.466308	62.982718	-6.260796	1.799519	-10.559473	-20.927725	34.496289	113.646436	79.175974	8.368706	28.914081
4.000000	9.893851	-5.608049	83.352330	0.230740	0.911624	0.589903	6.315892	5.243542	-9.826605	19.041131	0.332330	48.693349	17.826314	0.000000	4.849065	-5.218357	-1.781615	18.157489	0.316908	46.700629	-5.705689	0.000000	0.071954	1.240197	0.903553	0.133627	1.649462	0.960025	0.118214	3.015415	0.960025	0.082237	3.015415	0.790609	0.066817	2.529010	0.734137	0.041115	1.921065	0.677665	0.513963	14.029356	5.025293	0.000000	0.000000	23.620909	-9.583325	23.397558	3.690752	-21.310568	58.764528	21.533850	65.734286	-6.765900	2.558557	-9.591957	-20.979405	35.126032	113.283100	78.170543	8.561323	29.099170
4.016667	9.998943	-5.523552	83.455012	0.230790	0.911809	0.589612	6.191510	5.359807	-9.859615	18.954778	0.330823	48.716214	17.847836	0.000000	4.717625	-5.316310	-1.691140	18.153435	0.316837	46.702897	-5.790573	0.000000	0.063555	1.246874	0.970205	0.118029	1.658342	1.030843	0.104415	3.031649	1.030843	0.072638	3.031649	0.848930	0.059018	2.542625	0.788292	0.036316	1.931408	0.727654	0.453970	14.104887	5.395992	0.000000	0.000000	24.365785	-9.461323	22.628073	3.512884	-21.647887	55.677977	22.335614	67.224229	-7.201461	3.014926	-8.714750	-21.050150	35.693627	112.905340	77.259698	8.920199	29.226628
